<?xml version="1.0" standalone="no"?>
<!DOCTYPE svg PUBLIC "-//W3C//DTD SVG 20010904//EN"
 "http://www.w3.org/TR/2001/REC-SVG-20010904/DTD/svg10.dtd">
<svg version="1.0" xmlns="http://www.w3.org/2000/svg"
 width="873.000000pt" height="1280.000000pt" viewBox="0 0 873.000000 1280.000000"
 preserveAspectRatio="xMidYMid meet">

<g transform="translate(0.000000,1280.000000) scale(0.100000,-0.100000)"
fill="#000000" stroke="none">
<path d="M0 6400 l0 -6400 4365 0 4365 0 0 6400 0 6400 -55 0 -55 0 -3 -5252
c-2 -3912 -5 -5261 -14 -5283 -11 -29 -11 -29 -13 -5 -2 18 -4 20 -7 7 -2 -9
-9 -15 -14 -12 -5 4 -9 2 -9 -4 0 -16 -96 -42 -139 -37 -41 4 -41 4 -41 -29 0
-19 -4 -37 -10 -40 -20 -12 -11 -45 12 -45 12 0 18 -3 15 -7 -8 -7 56 -53 75
-53 7 0 4 -8 -8 -21 -17 -17 -37 -22 -100 -25 -44 -2 -92 -6 -108 -10 -117
-25 -181 -27 -227 -5 -54 26 -83 26 -120 1 -15 -12 -50 -23 -78 -27 -40 -4
-51 -10 -62 -32 -24 -49 -39 -96 -44 -136 -6 -47 -24 -97 -39 -108 -6 -4 8 -6
31 -3 24 2 45 0 49 -5 3 -5 14 -9 25 -9 13 0 25 -11 34 -33 12 -28 11 -34 -2
-49 -32 -35 -103 -12 -129 42 -10 20 -31 43 -46 49 -15 7 -28 17 -28 22 0 6
-11 21 -25 35 -14 14 -25 34 -25 44 0 11 -6 20 -12 21 -34 3 -66 -5 -103 -25
-47 -27 -118 -40 -197 -37 -36 1 -58 -2 -58 -8 0 -6 -11 -11 -25 -11 -29 0
-43 25 -28 49 16 26 -5 91 -34 102 -14 5 -28 7 -33 4 -5 -3 -15 3 -22 13 -7
11 -16 19 -19 18 -3 0 -35 19 -70 44 l-64 45 -124 0 c-84 0 -126 4 -128 11 -6
17 -44 5 -72 -23 -24 -23 -41 -30 -41 -15 0 4 -15 7 -32 7 -18 0 -44 8 -57 17
-13 10 -30 18 -37 18 -8 0 -14 5 -14 10 0 6 -18 10 -40 10 -24 0 -40 5 -40 12
0 8 -31 9 -115 5 -75 -4 -116 -3 -121 4 -4 7 -20 8 -43 4 -52 -11 -131 -11
-131 -1 0 4 -7 6 -15 2 -8 -3 -15 0 -16 7 0 11 -8 -5 -29 -58 -10 -24 -44
-143 -59 -200 -5 -22 -26 -93 -46 -158 -19 -65 -40 -152 -45 -193 -5 -41 -19
-96 -30 -122 -11 -26 -21 -58 -22 -72 l-3 -25 95 -1 c71 0 98 3 106 14 8 11
35 14 120 13 91 -1 113 -5 136 -21 17 -13 40 -19 65 -18 21 2 64 -1 95 -5 56
-8 57 -8 73 22 8 17 22 31 30 31 8 0 15 5 15 10 0 18 53 11 76 -11 21 -20 26
-20 195 -9 169 11 242 22 265 41 6 5 30 16 54 24 39 14 47 13 94 -3 28 -9 53
-20 54 -24 6 -12 57 -9 70 4 7 7 12 27 12 45 0 24 -9 40 -35 65 -20 17 -32 34
-27 37 5 3 11 13 14 22 9 23 118 33 161 15 42 -17 79 -56 92 -98 8 -23 19 -34
36 -36 13 -2 37 -15 53 -29 24 -20 37 -24 76 -20 61 6 140 41 147 65 5 21 93
62 131 62 13 0 37 7 54 16 18 9 67 19 113 21 70 5 85 3 115 -16 40 -24 108
-27 155 -7 31 13 100 5 120 -15 13 -13 46 -11 79 6 15 8 34 15 40 15 17 0 49
57 34 62 -8 3 -8 9 0 24 8 14 12 15 12 4 0 -13 1 -13 10 0 9 13 10 13 11 0 0
-10 3 -8 9 5 5 12 9 -97 9 -266 l1 -286 -32 5 c-45 6 -58 19 -58 58 0 38 -21
45 -55 20 -18 -13 -18 -15 -3 -37 14 -22 14 -27 -3 -60 -19 -39 -37 -48 -87
-44 -19 2 -29 -2 -27 -9 2 -6 9 -30 15 -53 8 -33 16 -43 42 -52 76 -27 154 -5
188 52 l20 32 1 -140 c0 -77 2 -207 3 -289 2 -152 -3 -223 -17 -218 -4 1 -15
-1 -24 -6 -21 -12 -10 -42 17 -42 17 0 20 -6 20 -48 0 -26 -5 -53 -12 -60 -14
-14 -118 -16 -118 -2 0 6 -9 10 -19 10 -11 0 -23 -4 -26 -10 -3 -5 -22 -10
-41 -10 -27 0 -34 4 -34 19 0 24 -21 32 -59 21 -16 -4 -32 -5 -36 -2 -6 7 -76
4 -84 -3 -2 -3 2 -11 9 -20 10 -12 10 -15 -3 -15 -9 0 -27 4 -41 10 -16 6 -27
6 -31 0 -9 -15 -1095 -13 -1095 1 0 8 -12 9 -37 4 -62 -12 -434 -17 -447 -6
-7 6 -18 6 -25 1 -8 -4 -239 -8 -515 -9 l-501 -1 -60 25 c-33 13 -75 25 -93
25 -35 0 -55 26 -31 40 18 12 12 16 -35 24 -35 7 -38 6 -27 -8 21 -25 3 -36
-60 -36 -33 0 -70 -5 -81 -11 -15 -8 -24 -8 -34 3 -12 12 -12 17 1 35 8 12 25
23 38 25 17 2 23 11 25 36 2 17 8 32 14 32 6 0 8 -9 5 -19 -3 -15 2 -20 22
-24 34 -7 52 9 49 42 -2 18 1 25 11 23 8 -2 38 -4 66 -5 29 -1 60 -8 69 -16
22 -18 31 -8 17 18 -7 11 -24 23 -39 26 -61 13 -90 49 -99 123 -7 63 -28 69
-37 11 -9 -53 -23 -79 -43 -79 -14 0 -14 -2 3 -15 15 -12 16 -16 6 -23 -11 -7
-10 -10 3 -16 27 -10 9 -23 -42 -31 -26 -4 -60 -13 -75 -21 -37 -19 -44 -18
-23 6 10 11 24 20 32 20 7 0 13 5 13 10 0 13 -13 13 -27 -1 -6 -6 -17 -9 -24
-7 -8 3 4 16 30 33 52 35 42 41 -45 26 -112 -20 -123 -32 -124 -130 -1 -48
-19 -70 -52 -64 -36 7 -46 -15 -13 -27 24 -9 26 -12 14 -28 -7 -9 -15 -19 -16
-21 -2 -3 -9 3 -16 13 -11 15 -19 16 -52 7 -21 -5 -42 -8 -47 -5 -18 11 15 34
48 34 19 0 34 5 34 10 0 6 -12 10 -27 10 -16 1 -45 3 -65 6 -31 5 -42 1 -63
-20 -19 -20 -32 -24 -54 -20 -16 4 -32 1 -35 -5 -5 -7 1 -11 14 -11 12 0 18
-4 15 -10 -3 -5 -27 -10 -53 -10 -44 1 -46 2 -27 16 20 15 20 15 -5 35 -44 35
-68 41 -95 23 -25 -17 -61 -12 -50 6 3 5 -2 10 -12 10 -36 0 -61 -12 -66 -31
-7 -25 -37 -25 -37 0 0 17 -6 19 -42 18 -30 -1 -45 -7 -50 -19 -4 -11 -18 -18
-33 -18 -27 0 -32 -9 -13 -28 9 -9 4 -12 -26 -12 -30 0 -37 3 -32 15 6 17 -7
19 -35 5 -13 -8 -19 -7 -19 0 0 19 -54 33 -145 36 -126 4 -173 -10 -166 -50 1
-5 -11 -5 -26 -2 -33 9 -48 9 -88 1 -33 -6 -78 23 -74 47 1 7 -1 20 -4 28 -4
8 -18 73 -32 144 -14 71 -28 133 -31 138 -3 4 -14 3 -25 -3 -11 -5 -32 -9 -47
-7 -27 4 -23 8 24 23 13 4 15 14 9 52 -5 32 -3 48 6 53 9 6 9 18 0 53 -16 66
-14 75 19 92 20 10 30 23 30 38 0 38 -44 159 -62 170 -15 10 -12 14 20 33 l37
22 56 -57 c32 -32 86 -74 121 -95 34 -20 122 -81 194 -135 180 -134 270 -161
426 -129 53 11 59 10 80 -9 33 -29 79 -51 126 -59 31 -5 53 0 103 22 80 34
104 55 136 119 21 41 24 60 20 106 -9 99 -57 164 -151 203 -50 21 -89 20 -149
-1 -32 -12 -52 -14 -61 -8 -7 6 -32 22 -55 38 -22 15 -41 32 -41 38 0 24 -44
51 -72 45 -23 -5 -30 -1 -44 25 -10 21 -20 29 -31 25 -11 -5 -14 -2 -9 10 4
10 0 18 -13 21 -21 5 -41 43 -41 78 0 14 -11 31 -27 43 -15 11 -23 24 -19 30
11 18 33 14 57 -10 l21 -23 -16 33 c-12 24 -14 37 -7 46 24 29 -30 36 -77 9
-27 -16 -30 -15 -55 3 -38 27 -33 37 13 29 35 -6 39 -5 34 10 -4 10 -1 21 7
25 17 11 8 21 -20 23 -30 2 -26 25 6 29 14 2 28 9 31 17 3 9 -2 11 -17 6 -15
-5 -21 -2 -21 9 0 9 -7 16 -15 16 -8 0 -23 8 -33 17 -10 10 -35 26 -56 36 -24
11 -36 23 -33 31 4 9 -3 16 -19 20 -13 4 -24 13 -24 22 0 8 -4 13 -9 9 -5 -3
-12 -1 -16 5 -14 22 -23 8 -18 -30 4 -25 2 -40 -5 -40 -6 0 -12 14 -14 32 -2
17 -9 33 -17 36 -10 4 -12 -6 -7 -49 6 -51 6 -53 -9 -34 -9 11 -24 19 -35 17
-11 -2 -21 5 -25 18 -3 11 -11 20 -17 20 -5 0 -8 -6 -5 -14 3 -7 8 -35 12 -62
l6 -49 -19 40 c-11 22 -41 58 -66 80 -25 22 -46 42 -46 45 0 3 12 6 26 7 18 1
28 -5 31 -18 3 -10 9 -16 14 -13 5 3 6 10 3 16 -4 6 2 5 15 -1 31 -17 41 -6
42 47 1 74 8 84 75 99 32 8 67 15 77 16 9 1 17 4 17 8 0 3 27 19 61 33 33 15
63 35 65 44 12 37 22 46 75 64 30 10 61 27 69 38 13 17 44 22 230 40 118 12
235 19 260 16 96 -13 93 -13 112 24 10 21 18 63 19 105 l2 70 7 -65 c4 -36 7
-57 8 -47 3 23 22 22 22 -1 0 -27 29 -23 36 5 4 13 9 23 13 23 13 0 31 49 25
65 -4 8 -9 15 -13 15 -16 -1 -40 -29 -46 -53 -9 -34 -25 -35 -25 -1 0 14 4 23
9 20 8 -6 21 15 21 34 0 5 -18 15 -39 21 -28 8 -43 20 -52 40 -6 16 -18 29
-25 29 -8 0 -22 8 -33 19 -18 18 -19 18 -35 -1 -10 -11 -27 -18 -39 -16 -12 1
-28 -1 -34 -5 -7 -5 -48 -10 -90 -12 -43 -2 -108 -6 -145 -10 l-67 -6 -16 38
c-9 20 -49 71 -89 113 -62 64 -106 124 -106 145 0 3 7 5 15 5 8 0 15 4 15 9 0
13 -70 55 -78 47 -3 -4 1 -27 10 -51 10 -25 13 -45 8 -45 -5 0 -31 12 -57 26
-26 15 -75 32 -108 38 -54 11 -60 14 -63 39 -3 22 1 27 18 27 16 0 20 5 16 15
-3 10 1 15 13 15 10 0 21 -9 24 -20 3 -11 18 -24 34 -30 15 -5 36 -15 47 -21
14 -8 21 -8 27 3 5 7 8 16 6 20 -5 14 -112 88 -137 93 l-26 6 4 88 c4 78 2 94
-17 128 -12 21 -43 53 -69 71 -49 33 -258 109 -270 98 -3 -4 0 -28 6 -54 45
-168 55 -202 63 -202 8 0 13 43 12 88 -1 14 2 15 25 3 9 -5 36 -14 59 -20 46
-13 56 -29 55 -92 -1 -58 -7 -62 -73 -55 -65 6 -68 3 -50 -58 5 -17 15 -51 22
-76 6 -25 14 -38 17 -30 6 20 33 50 44 50 10 0 10 -51 0 -68 -5 -7 -16 -10
-25 -6 -23 9 -22 -12 9 -121 49 -180 74 -291 74 -335 0 -43 -39 -140 -73 -182
-14 -18 -90 -49 -165 -68 -53 -14 -53 -16 -5 -128 16 -36 43 -155 43 -189 0
-24 -18 -32 -25 -10 -2 6 -15 50 -29 97 -59 200 -60 200 -78 200 -20 0 -457
-112 -1149 -294 -191 -50 -225 -54 -287 -32 -101 36 -140 91 -188 264 -20 70
-44 156 -55 192 -10 36 -25 98 -34 139 -8 41 -19 79 -25 85 -5 5 -10 20 -10
32 0 13 -4 25 -10 29 -5 3 -7 12 -4 20 7 16 -41 205 -61 245 -7 14 -20 60 -29
102 -16 70 -16 79 -1 107 17 35 23 37 39 17 9 -12 60 -1 311 65 291 77 420
110 880 225 121 31 243 62 270 70 63 18 382 94 396 94 5 0 17 -16 25 -35 14
-34 18 -36 86 -50 9 -1 18 1 20 6 4 13 -10 205 -20 267 -5 29 -7 54 -4 56 2 3
18 -4 35 -14 46 -26 142 -43 200 -36 193 26 334 172 345 358 6 103 -13 159
-84 248 -41 51 -70 76 -108 94 -65 30 -156 42 -188 24 -13 -7 -43 -13 -68 -13
-55 0 -133 -48 -126 -77 5 -22 -12 -24 -21 -2 -7 19 33 59 74 75 18 7 23 13
15 16 -8 3 -27 -4 -43 -16 -15 -11 -32 -21 -37 -21 -17 0 -44 -39 -36 -51 5
-8 2 -11 -8 -7 -18 7 -77 -66 -102 -126 l-16 -38 -31 30 c-17 17 -37 40 -43
51 -6 11 -28 49 -48 86 -21 36 -38 70 -38 75 0 5 -29 70 -65 144 -61 127 -97
176 -131 176 -8 0 -14 5 -14 10 0 6 -7 10 -16 10 -8 0 -12 5 -9 10 10 16 -17
12 -36 -6 -10 -9 -15 -22 -12 -30 3 -8 0 -14 -6 -14 -6 0 -11 7 -11 15 0 8
-10 16 -22 17 -13 0 -30 1 -38 2 -10 1 -23 31 -40 97 -14 53 -32 106 -40 118
-17 25 -80 50 -127 51 -32 0 -33 2 -33 40 0 47 -30 85 -59 75 -12 -3 -21 0
-24 10 -9 21 -67 55 -95 55 -13 0 -20 4 -17 10 3 6 14 10 23 10 31 1 129 83
170 145 67 98 86 150 86 230 0 77 -5 115 -15 115 -3 0 -11 18 -18 40 -13 43
-37 69 -27 29 5 -20 5 -21 -3 -4 -5 11 -16 47 -25 80 -97 365 -128 434 -242
549 -114 113 -302 193 -464 196 -30 1 -64 5 -74 9 -21 8 -50 98 -34 107 14 9
171 -47 202 -73 20 -17 39 -23 65 -22 20 1 57 -5 84 -14 90 -32 123 -32 165
-4 l37 25 93 -23 c56 -14 103 -32 116 -44 33 -31 93 -39 111 -15 22 29 18 68
-10 94 -23 22 -29 23 -58 12 -46 -17 -50 -16 -143 19 -80 30 -82 32 -90 71
-12 55 -52 86 -89 70 -29 -13 -34 -36 -6 -27 11 3 23 0 27 -6 5 -9 2 -10 -10
-6 -12 5 -16 3 -13 -5 2 -7 14 -12 27 -10 23 2 23 3 7 -90 -5 -25 -37 -58 -57
-58 -27 0 -50 34 -50 74 0 20 -4 35 -9 32 -5 -3 -14 1 -21 9 -14 17 -51 20
-66 5 -7 -7 -18 3 -33 30 -12 22 -29 40 -37 40 -41 0 9 61 61 76 l30 8 -29 4
c-38 5 -81 -14 -111 -49 -13 -16 -26 -29 -29 -29 -14 0 -4 22 19 42 35 30 31
42 -10 35 -25 -4 -35 -2 -35 8 0 9 -20 15 -60 20 -33 4 -60 11 -60 15 0 5 -26
14 -57 20 -32 7 -63 16 -68 21 -12 9 -71 22 -97 21 -12 0 -16 8 -16 31 1 18
-2 42 -7 53 -6 20 -2 23 33 29 23 3 67 22 99 42 94 57 171 93 197 93 38 0 38
13 3 65 -18 26 -38 58 -46 70 -19 29 -82 69 -90 57 -3 -5 -23 -12 -43 -16 -34
-6 -38 -4 -52 22 -15 28 -45 36 -126 34 -14 0 -30 4 -37 10 -8 6 -19 6 -32 -1
-27 -15 -48 -5 -59 27 -11 32 -1 71 27 111 29 40 26 57 -10 70 -27 9 -34 8
-44 -6 -7 -9 -17 -13 -24 -9 -6 4 -18 2 -26 -4 -8 -7 -15 -9 -15 -5 0 5 -9 0
-20 -10 -11 -10 -20 -28 -20 -40 0 -12 -16 -43 -35 -68 l-35 -46 -96 2 c-84 2
-98 0 -108 -16 -9 -15 -5 -23 24 -48 19 -16 42 -28 50 -26 8 2 46 -1 85 -8 65
-10 70 -13 75 -39 5 -27 11 -30 105 -53 55 -14 104 -29 109 -34 6 -5 -16 -10
-55 -11 -134 -4 -209 6 -296 40 -40 16 -56 32 -33 32 6 0 10 5 10 10 0 15 -50
12 -51 -2 -2 -24 3 -41 16 -55 8 -8 12 -25 10 -41 -3 -15 -7 -45 -9 -67 -6
-64 -28 -149 -39 -157 -6 -4 -16 -3 -22 2 -16 13 -118 24 -149 16 -25 -6 -89
-60 -81 -68 6 -5 -62 -89 -86 -106 -16 -11 -23 -12 -32 -3 -7 7 -12 16 -12 20
0 4 -15 20 -32 35 -18 15 -33 31 -33 34 0 14 46 60 76 75 18 9 50 19 73 23 22
4 46 13 52 20 14 17 6 17 -41 4 -19 -6 -76 -11 -127 -12 -89 -1 -91 -2 -81
-22 24 -46 28 -56 28 -69 0 -8 -11 -19 -25 -25 -14 -6 -25 -16 -25 -22 0 -12
2 -12 34 0 40 15 31 -3 -24 -46 -27 -21 -49 -43 -50 -48 0 -5 31 -6 69 -4 l69
5 4 -43 c3 -41 2 -44 -35 -60 -49 -23 -124 -22 -141 2 -14 19 -36 12 -36 -12
0 -10 -6 -14 -18 -10 -9 3 -35 6 -57 8 -22 1 -43 7 -47 13 -4 5 -8 1431 -8
3168 l0 3157 -65 0 -65 0 0 -6400z m1220 844 c14 -36 0 -53 -17 -20 -8 14 -11
31 -8 36 10 15 15 12 25 -16z m60 -124 c0 -13 -9 -22 -25 -26 -32 -8 -39 -2
-30 25 9 29 55 29 55 1z m190 -135 c44 -3 51 -27 19 -61 -18 -19 -30 -23 -48
-19 -21 5 -23 4 -12 -8 17 -21 -11 -30 -37 -12 -24 18 -35 54 -18 61 8 3 11
15 8 31 -5 24 -3 25 24 18 16 -5 45 -9 64 -10z m-227 -24 c7 -7 1 -14 -16 -20
-15 -6 -29 -21 -33 -36 -3 -14 -11 -25 -16 -25 -5 0 -21 -9 -35 -20 -31 -24
-101 -28 -109 -6 -7 18 14 41 84 94 48 35 58 39 85 31 17 -5 35 -13 40 -18z
m-149 10 c3 -4 -19 -8 -49 -7 -30 0 -55 4 -55 8 0 11 97 10 104 -1z m206 -61
c0 -5 -9 -10 -20 -10 -11 0 -20 5 -20 10 0 6 9 10 20 10 11 0 20 -4 20 -10z
m-280 -49 c0 -10 -9 -29 -21 -42 l-20 -24 6 25 c14 53 17 60 26 60 5 0 9 -9 9
-19z m-180 -151 c0 -11 -4 -20 -9 -20 -14 0 -23 18 -16 30 10 17 25 11 25 -10z
m-30 -100 c0 -5 -5 -10 -11 -10 -5 0 -7 5 -4 10 3 6 8 10 11 10 2 0 4 -4 4
-10z m-553 -240 c5 -18 14 -19 147 -17 99 1 152 -3 177 -12 34 -13 37 -18 50
-79 l14 -65 80 -19 c44 -11 98 -17 120 -15 27 4 35 2 25 -4 -8 -5 -42 -26 -74
-46 -33 -20 -54 -39 -48 -41 7 -2 10 -8 7 -12 -3 -5 -11 -7 -18 -4 -7 2 -28
-10 -47 -27 -19 -17 -27 -28 -17 -25 23 7 22 6 -15 -29 -24 -23 -29 -25 -20
-8 22 41 12 36 -25 -13 -20 -27 -40 -51 -44 -54 -15 -11 -89 -169 -101 -216
-6 -27 -16 -53 -21 -59 -13 -15 3 85 19 117 8 15 14 32 14 38 0 18 61 140 70
140 4 0 13 13 18 29 10 29 10 29 -15 16 -15 -8 -48 -19 -75 -25 -35 -9 -52
-19 -63 -39 -8 -14 -14 -20 -15 -13 0 19 -35 14 -55 -8 -10 -11 -28 -20 -41
-20 -12 0 -24 -5 -26 -11 -2 -6 -16 -11 -31 -11 -17 0 -29 -7 -32 -19 -8 -25
-41 -42 -65 -34 -19 6 -20 16 -20 151 0 144 0 144 25 156 14 6 25 15 25 20 0
4 7 8 15 8 11 0 15 11 15 40 0 32 7 46 35 75 20 19 31 35 25 35 -6 0 -10 12
-8 27 2 16 -2 28 -11 31 -8 3 -11 0 -7 -7 4 -6 3 -11 -3 -11 -13 0 -25 45 -17
65 8 21 27 19 33 -5z m1080 -46 c-3 -3 -12 -4 -19 -1 -8 3 -5 6 6 6 11 1 17
-2 13 -5z m-623 -50 c6 -10 14 -21 18 -25 4 -3 -8 -5 -27 -6 -30 -1 -35 2 -35
21 0 41 24 46 44 10z m406 -8 c-19 -6 -41 -15 -48 -20 -8 -5 -18 -4 -25 3 -6
6 -25 11 -41 11 -24 0 -27 3 -16 10 8 5 49 9 90 9 71 -1 73 -2 40 -13z m-247
-33 c-7 -2 -21 -2 -30 0 -10 3 -4 5 12 5 17 0 24 -2 18 -5z m1052 -23 c39 -12
97 -36 129 -53 100 -53 226 -194 226 -252 0 -20 -3 -19 -53 7 -34 18 -104 47
-114 48 -1 0 0 -7 4 -16 5 -14 2 -14 -32 0 -21 9 -46 14 -56 11 -9 -3 -20 -1
-24 5 -3 5 0 11 7 11 7 1 -5 5 -27 9 -48 9 -225 3 -240 -9 -5 -5 -24 -8 -42
-6 -22 1 -30 -2 -26 -12 3 -8 -2 -13 -16 -13 -12 0 -21 -4 -21 -10 0 -5 -7
-10 -15 -10 -8 0 -15 3 -15 8 0 9 -66 9 -75 0 -4 -4 -13 -4 -20 -2 -7 3 -20
-5 -29 -18 -9 -12 -16 -17 -16 -10 0 6 -7 12 -16 12 -8 0 -12 -4 -9 -10 4 -6
-7 -10 -24 -10 -17 0 -31 -5 -31 -11 0 -6 -9 -9 -20 -6 -11 3 -23 1 -26 -4 -8
-14 -24 -10 -24 6 0 9 9 15 25 15 14 0 25 4 25 9 0 6 -13 6 -32 0 -18 -5 -49
-12 -68 -15 -49 -8 -59 -17 -30 -25 23 -6 23 -7 3 -8 -12 -1 -25 -6 -29 -13
-5 -8 -10 -6 -15 8 -7 17 -8 17 -8 -3 -1 -26 -26 -31 -35 -7 -3 8 -10 13 -15
9 -6 -3 -8 -12 -5 -20 4 -9 -4 -17 -22 -21 -18 -5 -29 -3 -32 4 -5 16 -49 15
-58 0 -5 -8 -2 -9 9 -5 9 3 19 2 22 -3 8 -13 -56 -29 -76 -19 -20 10 -32 0
-19 -16 8 -9 2 -14 -22 -20 -18 -4 -39 -7 -47 -6 -7 1 -10 -2 -6 -8 3 -7 -3
-11 -16 -11 -24 0 -99 -39 -99 -52 0 -5 -5 -6 -11 -2 -6 3 -14 3 -18 -2 -11
-15 -117 -84 -129 -84 -7 0 -17 -9 -24 -20 -19 -31 -28 -24 -28 21 0 40 13 58
73 106 115 92 430 228 617 267 173 36 291 50 503 62 64 3 117 9 117 13 0 11
-62 66 -101 89 -21 13 -53 22 -76 22 -34 0 -47 7 -85 45 -25 24 -42 48 -39 51
3 4 69 4 146 1 104 -4 158 -11 210 -27z m-967 -12 c-19 -6 -37 -6 -55 0 -25 9
-21 10 27 10 48 0 52 -1 28 -10z m577 -7 c22 -10 48 -27 58 -38 16 -18 16 -22
3 -36 -19 -19 -64 -10 -124 24 -44 25 -50 37 -30 57 17 17 46 15 93 -7z m-522
-108 c-7 -2 -19 -2 -25 0 -7 3 -2 5 12 5 14 0 19 -2 13 -5z m-53 -22 c0 -5
-10 -11 -22 -14 -22 -6 -22 -6 -4 8 23 17 26 18 26 6z m-235 -30 c-3 -6 -11
-11 -16 -11 -5 0 -4 6 3 14 14 16 24 13 13 -3z m151 -28 c-10 -10 -19 5 -10
18 6 11 8 11 12 0 2 -7 1 -15 -2 -18z m-261 -83 c-3 -5 -12 -10 -18 -10 -7 0
-6 4 3 10 19 12 23 12 15 0z m1475 -40 c85 -6 75 -7 -91 -8 -239 -2 -446 -29
-684 -88 -114 -29 -266 -82 -468 -163 -95 -37 -123 -40 -47 -4 128 60 415 163
535 191 91 21 366 68 440 75 68 6 216 5 315 -3z m157 -16 c-3 -3 -12 -4 -19
-1 -8 3 -5 6 6 6 11 1 17 -2 13 -5z m-1797 -413 c0 -66 -11 -81 -59 -81 -27 0
-32 -3 -21 -10 13 -8 13 -10 -1 -10 -9 0 -20 7 -23 16 -7 17 27 80 47 87 7 2
9 8 5 12 -4 4 -66 -15 -137 -43 -119 -46 -131 -48 -131 -31 0 11 6 21 13 23 6
2 75 26 152 54 77 28 143 48 148 45 4 -2 7 -30 7 -62z m15 -153 c6 -40 4 -54
-7 -62 -8 -6 -17 -18 -21 -26 -5 -13 -6 -13 -6 1 -1 9 -12 29 -26 45 -31 36
-31 39 1 69 40 37 51 32 59 -27z m-305 30 c0 -7 -5 -20 -10 -28 -8 -12 -10 -9
-10 13 0 15 5 27 10 27 6 0 10 -6 10 -12z m275 -209 c12 -19 14 -142 3 -163
-8 -15 -12 -16 -18 -5 -14 27 -21 117 -9 124 6 4 8 18 5 31 -6 24 7 33 19 13z
m1792 -180 c-29 -17 -79 -29 -90 -22 -13 8 48 31 83 32 22 0 23 -1 7 -10z m93
-63 c-26 -24 -152 -68 -163 -57 -13 13 154 92 168 80 6 -6 4 -14 -5 -23z m30
-81 c0 -8 -7 -15 -15 -15 -8 0 -15 7 -15 15 0 8 7 15 15 15 8 0 15 -7 15 -15z
m-1794 -41 c-3 -8 -15 -14 -26 -14 -26 0 -29 47 -2 52 20 5 36 -17 28 -38z
m1665 -49 c30 -42 35 -45 66 -39 33 6 47 -8 18 -20 -23 -8 -18 -31 23 -104 44
-79 115 -221 136 -274 l15 -38 -107 0 c-70 0 -102 4 -92 10 12 8 12 13 -6 37
-44 59 -54 89 -52 162 0 40 5 74 10 77 4 3 8 -1 8 -9 0 -7 11 -24 25 -37 39
-37 29 -6 -26 81 -34 52 -57 102 -68 148 -17 67 -17 69 0 60 10 -5 32 -29 50
-54z m358 -62 c22 -18 21 -18 -33 -15 -35 3 -56 9 -60 18 -8 21 66 18 93 -3z
m-2346 -40 c-8 -21 -22 -46 -31 -56 -22 -25 -19 -75 8 -120 21 -35 24 -37 44
-24 25 17 140 57 161 57 8 0 15 -4 15 -9 0 -9 -59 -32 -133 -51 -53 -14 -63
-26 -53 -65 7 -28 36 -34 56 -10 7 8 21 15 31 15 10 0 39 7 64 15 25 9 50 13
56 9 16 -10 -11 -23 -111 -55 -91 -29 -109 -46 -110 -104 -1 -27 -2 -28 -14
-13 -17 23 -36 5 -36 -34 0 -23 -4 -28 -25 -28 -24 0 -25 3 -25 54 l0 55 43
-2 c39 -2 42 0 39 22 -2 13 2 27 9 32 11 6 10 18 -2 65 -8 32 -21 60 -28 62
-10 3 -12 -1 -9 -14 13 -44 12 -49 -2 -49 -8 0 -18 17 -25 42 -5 23 -13 45
-18 49 -4 4 -7 31 -7 59 0 49 3 54 35 76 19 13 35 28 35 32 0 6 22 19 47 26 1
1 -5 -16 -14 -36z m152 28 c-16 -14 -55 -23 -55 -13 0 12 17 20 45 21 11 1 15
-3 10 -8z m-79 -26 c-22 -17 -36 -19 -36 -7 0 14 12 22 34 22 21 -1 21 -1 2
-15z m1595 -46 c8 0 5 -4 -6 -9 -24 -9 -51 12 -40 31 6 9 11 8 20 -4 7 -10 18
-17 26 -18z m566 -38 c21 -24 56 -71 78 -105 38 -57 43 -61 75 -59 19 2 76 4
127 5 81 3 95 1 112 -17 11 -11 35 -76 56 -150 21 -71 39 -134 42 -141 3 -8
-18 -10 -74 -7 -43 2 -87 6 -99 8 -33 7 -168 149 -170 180 0 14 -8 33 -18 44
-9 10 -18 27 -20 38 -3 11 -16 33 -30 48 -15 16 -24 30 -21 33 6 6 -47 82 -89
127 -19 20 -37 43 -40 51 -9 23 25 -3 71 -55z m-638 35 c9 -11 5 -15 -21 -19
-38 -5 -43 -3 -35 18 8 19 41 20 56 1z m-79 -15 c0 -26 -10 -31 -31 -18 -16
10 -21 9 -29 -3 -15 -23 -12 -30 10 -30 21 0 24 -8 14 -34 -9 -24 -33 -19 -40
9 -3 14 -10 22 -15 19 -5 -3 -5 -14 1 -25 12 -22 6 -39 -15 -39 -8 0 -31 -11
-51 -25 -45 -31 -71 -32 -80 -3 -4 15 -1 25 12 35 25 18 30 17 39 -9 8 -22 8
-22 12 5 3 21 10 27 29 27 13 0 24 6 24 13 0 16 -57 11 -79 -6 -10 -9 -17 -7
-27 8 -24 32 -20 38 34 50 27 5 32 4 33 -12 0 -15 2 -14 9 5 11 27 19 28 36 5
10 -14 15 -15 25 -6 10 10 9 14 -6 19 -14 6 -11 9 16 18 54 17 79 16 79 -3z
m-1345 -1 c-6 -10 -127 -50 -153 -50 -27 0 0 19 59 40 58 21 104 26 94 10z
m1528 -20 c3 -11 13 -20 22 -20 12 0 15 5 10 21 -6 18 -5 20 14 10 25 -14 27
-36 5 -45 -32 -12 -111 -6 -124 9 -9 11 -10 19 -3 26 8 8 14 5 23 -10 13 -26
33 -18 25 10 -4 13 -2 19 8 19 8 0 17 -9 20 -20z m-101 -25 c4 -21 1 -25 -17
-25 -26 0 -42 29 -23 42 23 14 36 9 40 -17z m-52 -27 c0 -12 -28 -10 -35 2 -4
6 -4 19 0 28 6 16 8 15 21 -2 8 -11 14 -23 14 -28z m-706 -35 c57 -41 105 -88
216 -211 41 -45 83 -85 93 -88 14 -4 16 -9 6 -20 -9 -11 -8 -15 4 -20 26 -9
32 -63 10 -79 -12 -9 -13 -14 -5 -15 10 0 13 -16 12 -57 -2 -76 -1 -81 11 -60
5 9 16 17 23 17 7 0 26 11 42 25 16 14 36 25 44 25 9 0 21 5 28 12 26 26 18
-2 -26 -92 -26 -52 -56 -122 -66 -155 -11 -33 -25 -66 -32 -74 -17 -19 -51 -5
-65 29 -8 16 -16 27 -20 24 -4 -2 -10 0 -14 6 -4 6 -10 8 -14 5 -5 -2 -20 33
-35 78 -52 164 -110 294 -137 312 -16 12 -35 44 -53 91 -16 40 -39 88 -53 106
-32 44 -47 98 -39 142 4 20 9 36 13 36 3 0 28 -17 57 -37z m-595 -116 c-2 -1
-12 -9 -22 -16 -15 -12 -17 -12 -11 3 3 9 13 16 22 16 8 0 13 -1 11 -3z m315
-63 c-20 -7 -41 -19 -45 -26 -5 -7 -9 -8 -9 -2 0 24 53 55 78 46 8 -3 -3 -11
-24 -18z m1399 -31 c-7 -2 -19 -2 -25 0 -7 3 -2 5 12 5 14 0 19 -2 13 -5z
m-1878 -23 c-21 -23 -35 -26 -35 -6 0 15 14 24 39 25 11 1 10 -4 -4 -19z m527
-19 c28 -10 87 -125 137 -263 11 -32 25 -66 29 -75 11 -21 26 -66 49 -138 8
-27 22 -67 31 -88 8 -21 16 -54 16 -73 1 -18 4 -34 9 -34 13 0 28 -51 21 -72
-5 -18 -7 -18 -20 7 -8 15 -14 31 -14 36 0 5 -9 28 -19 52 -11 23 -26 62 -35
87 -28 86 -116 293 -131 310 -8 9 -15 22 -15 28 0 25 -92 201 -113 215 l-22
16 27 0 c15 1 37 -3 50 -8z m-288 -37 c9 -23 7 -44 -4 -44 -13 0 -32 38 -25
50 9 15 22 12 29 -6z m1343 0 c-12 -12 -152 -74 -167 -74 -19 0 41 39 95 62
40 17 84 24 72 12z m-202 -34 c3 -5 1 -10 -4 -10 -6 0 -11 5 -11 10 0 6 2 10
4 10 3 0 8 -4 11 -10z m-1021 -35 c-4 -8 -8 -15 -10 -15 -2 0 -4 7 -4 15 0 8
4 15 10 15 5 0 7 -7 4 -15z m2721 -15 c3 -5 -1 -10 -9 -10 -9 0 -16 5 -16 10
0 6 4 10 9 10 6 0 13 -4 16 -10z m-3168 -18 c-10 -10 -14 -22 -10 -25 11 -12
51 -8 55 5 3 7 5 -24 6 -67 1 -51 -1 -75 -7 -66 -13 21 -41 5 -41 -23 0 -34
-18 -42 -26 -12 -5 22 -10 24 -40 19 l-34 -6 0 42 c0 30 8 52 25 75 14 18 22
36 17 40 -10 10 27 36 51 36 19 0 19 -1 4 -18z m384 -23 c-9 -23 -10 -22 -10
11 -1 23 2 31 9 24 7 -7 7 -19 1 -35z m30 18 c-10 -9 -11 -8 -5 6 3 10 9 15
12 12 3 -3 0 -11 -7 -18z m2977 11 c-3 -7 -15 -14 -29 -16 -23 -2 -23 -2 -5
13 24 18 39 20 34 3z m-1313 -29 c19 -5 3 -6 -47 -3 -138 10 -302 -54 -384
-150 -19 -22 -36 -37 -39 -34 -8 8 74 90 125 124 40 28 104 54 165 67 33 8
148 5 180 -4z m62 -15 c-3 -3 -12 -4 -19 -1 -8 3 -5 6 6 6 11 1 17 -2 13 -5z
m-907 -8 c0 -3 -4 -8 -10 -11 -5 -3 -10 -1 -10 4 0 6 5 11 10 11 6 0 10 -2 10
-4z m1466 -23 c16 -16 16 -18 1 -21 -19 -4 -57 15 -57 28 0 16 37 11 56 -7z
m-548 -22 c104 -32 173 -93 221 -197 31 -67 51 -145 51 -202 0 -70 -44 -192
-92 -257 -61 -82 -147 -145 -199 -145 -14 0 -30 -5 -36 -11 -6 -6 -43 -14 -82
-17 -79 -5 -155 11 -174 38 -7 9 -24 20 -39 24 -94 23 -218 205 -226 331 -13
209 130 407 321 445 77 15 189 11 255 -9z m455 -19 c20 -18 23 -55 5 -69 -7
-5 -30 -9 -50 -9 -21 1 -38 -2 -38 -6 0 -18 -21 -6 -30 17 -27 70 54 119 113
67z m380 -6 c4 -10 1 -13 -8 -9 -8 3 -12 9 -9 14 7 12 11 11 17 -5z m-2673
-23 c0 -5 -14 -22 -30 -40 -17 -18 -30 -35 -30 -39 0 -4 -7 -16 -17 -26 -18
-20 -4 -25 16 -5 11 10 11 8 2 -10 -13 -25 -31 -39 -31 -24 0 6 -5 11 -11 11
-5 0 -8 -4 -4 -9 3 -5 1 -12 -5 -16 -5 -3 -10 -11 -10 -16 0 -6 5 -7 10 -4 17
10 12 -1 -26 -57 -25 -36 -34 -45 -31 -28 6 24 6 24 -9 5 -8 -11 -17 -30 -21
-42 -3 -13 -9 -23 -14 -23 -5 0 -9 -9 -9 -20 0 -11 -4 -20 -9 -20 -5 0 -11
-10 -14 -22 -4 -12 -9 -20 -11 -17 -3 3 -1 21 4 40 6 18 7 49 4 66 -4 21 -2
33 5 33 18 0 13 17 -14 46 -15 16 -22 32 -17 39 15 27 99 82 145 96 32 9 58
26 80 51 31 36 47 47 47 31z m2710 -3 c0 -5 -4 -10 -10 -10 -5 0 -10 5 -10 10
0 6 5 10 10 10 6 0 10 -4 10 -10z m0 -98 c0 -60 -19 -102 -46 -102 -8 0 -14
-5 -14 -12 0 -7 -12 3 -27 21 -16 19 -38 45 -51 58 -13 14 -21 27 -19 29 6 7
140 63 150 64 4 0 7 -26 7 -58z m-3035 -2 c3 -6 -4 -10 -17 -10 -18 0 -20 2
-8 10 19 12 18 12 25 0z m-53 -22 c-3 -14 0 -17 12 -12 15 6 15 3 -1 -24 l-18
-31 -12 42 c-7 23 -13 42 -13 42 0 1 8 1 19 1 12 0 17 -6 13 -18z m388 -58 c0
-16 -58 -76 -66 -68 -4 4 5 23 20 43 26 34 46 45 46 25z m-403 -102 c-2 -13
-4 -3 -4 22 0 25 2 35 4 23 2 -13 2 -33 0 -45z m3073 33 c0 -17 -18 -21 -24
-6 -3 9 0 15 9 15 8 0 15 -4 15 -9z m-1620 -43 c29 -32 25 -68 -10 -77 -82
-20 -85 -20 -97 -4 -20 26 -16 51 12 78 30 31 68 32 95 3z m-1068 -33 c-3 -36
-1 -45 12 -45 11 0 16 9 16 33 0 17 5 39 10 47 7 12 11 8 16 -18 4 -18 10 -35
15 -38 18 -11 -5 -34 -34 -34 -17 0 -38 -6 -46 -13 -24 -20 -120 -57 -125 -48
-11 17 104 161 129 161 6 0 9 -18 7 -45z m58 -85 c-8 -5 -19 -10 -25 -10 -5 0
-3 5 5 10 8 5 20 10 25 10 6 0 3 -5 -5 -10z m-97 -49 c-33 -22 -66 -47 -71
-58 -6 -10 -13 -15 -17 -12 -10 10 45 68 84 89 64 34 68 21 4 -19z m827 29 c0
-5 -4 -10 -10 -10 -5 0 -10 5 -10 10 0 6 5 10 10 10 6 0 10 -4 10 -10z m-1069
-56 c-5 -16 -10 -21 -10 -12 -1 18 10 51 15 45 2 -1 -1 -16 -5 -33z m1116 14
c-3 -8 -6 -5 -6 6 -1 11 2 17 5 13 3 -3 4 -12 1 -19z m-207 -25 c0 -5 -4 -14
-9 -21 -7 -11 -9 -11 -14 1 -3 8 -3 18 0 21 9 8 23 7 23 -1z m191 -24 c-5 -13
-10 -19 -10 -12 -1 15 10 45 15 40 3 -2 0 -15 -5 -28z m-680 -22 c22 6 23 5 9
-11 -13 -17 -104 -66 -122 -66 -21 0 -4 30 27 49 19 11 35 26 35 32 0 8 4 8
13 1 7 -6 24 -8 38 -5z m499 -37 c0 -5 -2 -10 -4 -10 -3 0 -8 5 -11 10 -3 6
-1 10 4 10 6 0 11 -4 11 -10z m-1020 -46 c0 -8 -4 -12 -10 -9 -5 3 -10 13 -10
21 0 8 5 12 10 9 6 -3 10 -13 10 -21z m510 -11 c0 -20 3 -24 18 -18 107 45
120 49 197 48 67 0 90 -5 146 -31 37 -16 70 -35 73 -41 12 -19 -33 -12 -55 7
-11 11 -37 25 -59 32 -33 11 -44 11 -73 -4 -39 -18 -77 -21 -77 -6 0 18 -28
11 -80 -20 -69 -41 -119 -88 -136 -130 -8 -19 -27 -47 -41 -62 -21 -22 -26
-36 -25 -74 1 -25 5 -51 8 -56 8 -13 33 -118 34 -141 0 -10 -5 -15 -10 -12
-20 12 -38 73 -45 155 -7 75 -9 82 -21 65 -13 -18 -14 -18 -15 6 -1 13 -3 34
-4 46 -2 22 48 98 102 155 21 22 24 33 19 59 -4 24 -2 35 11 44 23 17 33 10
33 -22z m530 27 c0 -5 -5 -10 -11 -10 -5 0 -7 5 -4 10 3 6 8 10 11 10 2 0 4
-4 4 -10z m76 -96 c32 -9 48 -71 29 -116 -8 -20 -12 -38 -9 -41 3 -3 -4 -10
-15 -17 -17 -8 -21 -8 -21 4 0 14 -29 31 -38 21 -3 -3 0 -5 6 -5 7 0 12 -8 12
-17 0 -15 -2 -15 -14 2 -8 11 -11 25 -9 33 3 7 -5 24 -17 38 -13 13 -19 24
-14 24 11 0 -18 20 -30 20 -5 0 -6 -23 -3 -52 l7 -52 -20 37 c-11 20 -20 45
-20 56 0 22 24 45 42 38 7 -2 29 4 48 15 39 20 37 20 66 12z m54 -4 c0 -5 -4
-10 -10 -10 -5 0 -10 5 -10 10 0 6 5 10 10 10 6 0 10 -4 10 -10z m-522 -33 c3
-25 7 -28 28 -23 14 4 24 2 24 -4 0 -5 -13 -10 -29 -10 -28 0 -61 33 -61 60 0
25 35 4 38 -23z m124 -118 c24 -70 17 -98 -10 -39 -29 64 -38 104 -22 98 8 -2
22 -29 32 -59z m-84 8 c23 -52 39 -127 23 -112 -9 9 -61 137 -61 150 0 3 4 5
10 5 5 0 18 -19 28 -43z m238 -12 c9 -40 -4 -27 -16 15 -6 20 -6 30 -1 24 5
-5 13 -22 17 -39z m-72 -2 c3 -16 8 -39 11 -53 3 -15 -2 -10 -14 15 -22 44
-25 65 -12 65 5 0 11 -12 15 -27z m1386 17 c0 -5 -9 -10 -21 -10 -11 0 -17 5
-14 10 3 6 13 10 21 10 8 0 14 -4 14 -10z m-1620 -51 c6 -23 9 -44 6 -47 -3
-3 -6 2 -6 10 0 9 -7 21 -15 28 -17 14 -21 50 -5 50 5 0 14 -18 20 -41z m-55
-89 c7 -22 6 -23 -9 -11 -9 7 -16 23 -16 34 0 26 15 12 25 -23z m-65 -62 c0
-5 -4 -8 -10 -8 -5 0 -10 10 -10 23 0 18 2 19 10 7 5 -8 10 -18 10 -22z m611
-99 c-13 -11 -27 -17 -30 -13 -3 3 5 14 18 25 13 11 27 17 30 13 3 -3 -5 -14
-18 -25z m-655 -26 c-10 -10 -19 5 -10 18 6 11 8 11 12 0 2 -7 1 -15 -2 -18z
m3195 -133 c40 -11 83 -51 98 -93 7 -18 7 -26 1 -22 -6 3 -10 11 -10 17 0 15
-47 68 -54 61 -3 -4 -6 -1 -6 5 0 6 -16 14 -35 18 -19 3 -38 10 -41 15 -7 11
3 11 47 -1z m-3152 -31 c-16 -10 -23 -4 -14 10 3 6 11 8 17 5 6 -4 5 -9 -3
-15z m3164 -30 c23 -13 37 -28 37 -43 0 -6 -6 -3 -12 6 -7 9 -26 23 -43 32
-16 8 -24 15 -17 16 7 0 23 -5 35 -11z m-3093 -28 c0 -5 -13 -19 -30 -31 -33
-23 -42 -9 -13 22 17 19 43 24 43 9z m165 -13 c-11 -6 -22 -14 -25 -18 -3 -3
-21 -17 -40 -30 -19 -13 -37 -27 -40 -30 -3 -3 -18 -14 -33 -23 -16 -10 -58
-43 -93 -74 -36 -30 -67 -53 -70 -50 -2 2 19 26 48 54 29 27 64 62 77 76 13
15 30 27 37 27 8 0 37 18 65 40 28 22 61 40 72 40 22 -1 22 -1 2 -12z m2943
-25 c18 -3 37 -14 43 -26 10 -18 9 -19 -7 -11 -11 4 -40 9 -65 10 -25 1 -55 5
-68 9 -18 5 -20 9 -10 22 9 10 22 13 43 8 17 -3 46 -8 64 -12z m179 -103 c3
-10 2 -11 -4 -4 -4 6 -15 14 -23 17 -11 5 -9 6 4 4 11 -1 21 -9 23 -17z m-300
-154 c-23 -23 -46 -19 -57 10 -14 35 -13 37 15 32 14 -3 28 -1 32 5 4 6 10 2
16 -11 7 -15 5 -25 -6 -36z m209 19 c7 -19 14 -51 13 -72 l-1 -38 -9 40 c-6
22 -14 55 -18 73 -12 42 -4 41 15 -3z m-3106 1 c0 -14 -48 -51 -56 -43 -6 6
36 57 47 57 5 0 9 -6 9 -14z m3070 -37 c6 -23 10 -43 8 -45 -7 -6 -48 8 -48
17 0 5 -8 9 -18 9 -22 0 -52 -30 -56 -57 -4 -21 -33 -20 -55 2 -13 13 -12 17
3 34 11 12 15 27 11 40 -5 16 -1 22 22 27 15 3 33 7 38 9 6 2 27 4 47 4 35 1
38 -1 48 -40z m337 -66 c3 -8 -6 -11 -23 -10 -15 1 -29 8 -32 15 -3 10 4 13
24 10 15 -2 29 -8 31 -15z m4387 -100 c3 -8 2 -22 -4 -31 -8 -14 -10 -14 -10
-2 -1 10 -4 9 -10 -5 -6 -13 -9 -15 -9 -5 -1 13 -2 13 -11 0 -8 -12 -12 -11
-31 8 -11 13 -19 24 -18 25 2 1 18 9 34 18 33 17 50 15 59 -8z m-4800 -38
c-18 -28 -40 -34 -30 -9 3 9 6 20 6 25 0 5 9 9 20 9 20 0 20 -1 4 -25z m-3634
-152 c12 -54 26 -111 31 -126 5 -16 11 -59 14 -95 l5 -67 -21 60 c-27 79 -69
265 -69 305 0 56 17 22 40 -77z m722 67 c-5 -30 -8 -34 -21 -25 -6 3 -11 17
-11 31 0 19 5 25 18 22 12 -2 16 -11 14 -28z m-439 -67 c5 -63 3 -70 -23 -99
l-27 -31 -9 36 c-8 32 -12 36 -42 36 -18 0 -36 6 -41 14 -7 10 -13 6 -27 -18
-13 -22 -21 -28 -30 -20 -7 6 -18 8 -24 4 -5 -3 -10 2 -10 13 0 11 -7 36 -15
55 -21 51 -20 60 6 46 28 -15 126 -7 164 13 17 9 40 16 51 17 19 1 22 -6 27
-66z m511 61 c9 -3 16 -13 16 -21 0 -20 -34 -12 -38 10 -4 19 -1 20 22 11z
m5656 -21 c0 -5 -5 -15 -10 -23 -9 -13 -11 -13 -20 0 -15 22 -12 30 10 30 11
0 20 -3 20 -7z m56 -30 c-11 -11 -19 6 -11 24 8 17 8 17 12 0 3 -10 2 -21 -1
-24z m-5976 -53 c0 -5 -4 -10 -10 -10 -5 0 -10 5 -10 10 0 6 5 10 10 10 6 0
10 -4 10 -10z m2760 -111 c0 -20 -15 -26 -25 -9 -9 15 3 43 15 35 5 -3 10 -15
10 -26z m-3006 -15 c17 -6 23 -44 7 -44 -15 0 -42 31 -36 41 7 11 9 11 29 3z
m878 -46 c-6 -6 -15 -8 -19 -4 -4 4 -1 11 7 16 19 12 27 3 12 -12z m-69 -74
c4 -22 2 -25 -17 -19 -11 3 -26 7 -33 9 -20 4 -28 16 -11 16 9 0 21 7 28 15
16 19 26 12 33 -21z m-93 -13 c-8 -5 -26 -12 -40 -15 -24 -7 -24 -6 -6 8 11 9
29 16 40 16 17 -1 18 -2 6 -9z m2603 -25 c23 -17 11 -26 -26 -19 -27 5 -33 13
-20 26 10 10 26 8 46 -7z m4652 4 c-3 -5 -10 -10 -16 -10 -5 0 -9 5 -9 10 0 6
7 10 16 10 8 0 12 -4 9 -10z m-5446 -16 c8 -8 -5 -13 -40 -17 -19 -2 -39 -6
-44 -9 -11 -6 -141 -37 -190 -45 -42 -7 -20 11 31 25 22 7 56 22 75 35 29 19
44 22 99 19 36 -3 67 -6 69 -8z m-2519 -23 c0 -6 -4 -12 -10 -16 -5 -3 -7 -12
-3 -20 4 -11 1 -13 -12 -8 -15 5 -17 2 -13 -15 5 -19 2 -21 -25 -19 -24 2 -33
8 -35 25 -2 15 1 20 10 17 8 -3 25 5 39 19 25 25 49 33 49 17z m558 -32 c-2
-17 -10 -25 -29 -27 -16 -2 -29 -11 -32 -21 -5 -20 -56 -50 -75 -43 -18 6 -15
46 6 69 9 11 35 26 57 34 22 7 44 17 50 21 14 12 27 -7 23 -33z m53 14 c-8
-15 -10 -15 -11 -2 0 17 10 32 18 25 2 -3 -1 -13 -7 -23z m2449 -53 c11 -11
20 -27 20 -36 0 -13 -6 -11 -25 10 -13 14 -29 26 -35 26 -5 0 -10 5 -10 10 0
17 29 11 50 -10z m-2483 -12 c-3 -8 -6 -5 -6 6 -1 11 2 17 5 13 3 -3 4 -12 1
-19z m-767 -13 c-7 -8 -22 -15 -34 -15 -20 1 -20 2 4 15 33 19 46 19 30 0z
m-112 -13 c2 -7 -3 -12 -12 -12 -9 0 -16 7 -16 16 0 17 22 14 28 -4z m392 -12
c-6 -12 -14 -20 -17 -17 -2 3 1 14 8 26 17 26 24 19 9 -9z m-45 -50 c-10 -11
-23 -20 -28 -20 -6 0 -2 9 8 20 10 11 23 20 28 20 6 0 2 -9 -8 -20z m2830
-140 c3 -5 -1 -10 -10 -10 -9 0 -13 5 -10 10 3 6 8 10 10 10 2 0 7 -4 10 -10z
m632 -80 c12 -17 11 -18 -9 -11 -25 9 -36 31 -16 31 7 0 19 -9 25 -20z m-5
-45 c-6 -43 -25 -75 -43 -75 -11 0 -19 5 -19 10 0 6 5 10 10 10 6 0 10 11 10
24 0 37 11 57 29 54 9 -2 15 -12 13 -23z m-544 -18 c4 -22 -51 -50 -67 -34
-20 20 -13 40 14 35 17 -4 25 -1 25 9 0 19 24 11 28 -10z m-2858 -284 c0 -13
-6 -23 -12 -23 -7 0 -23 -3 -36 -6 -22 -6 -23 -4 -20 27 2 26 8 35 28 39 28 7
40 -4 40 -37z m280 -18 c0 -27 -3 -30 -32 -29 -44 1 -49 29 -11 59 32 26 43
18 43 -30z m-690 16 c0 -5 8 -8 17 -7 21 1 40 -34 89 -163 38 -100 100 -226
123 -251 23 -24 40 -75 34 -101 -3 -13 -23 -48 -45 -76 l-39 -53 -99 0 -100 0
0 330 c0 213 4 330 10 330 6 0 10 -4 10 -9z m1100 -47 c0 -9 -5 -14 -12 -12
-18 6 -21 28 -4 28 9 0 16 -7 16 -16z m69 -11 c9 -19 9 -29 2 -31 -6 -2 -9 -8
-5 -13 3 -5 -4 -9 -15 -9 -24 0 -31 17 -18 53 11 34 21 34 36 0z m-443 -109
c-7 -19 -35 -18 -43 2 -4 11 1 22 12 31 16 11 20 11 28 -3 5 -8 6 -22 3 -30z
m672 -2 c2 -12 -1 -22 -6 -22 -15 0 -34 28 -27 40 10 17 30 6 33 -18z m-384
-55 c-9 -18 -23 -40 -32 -50 -19 -22 -12 -30 21 -22 15 4 30 18 38 36 14 36
34 33 35 -5 1 -34 10 -42 28 -27 11 9 15 8 20 -5 10 -27 7 -44 -10 -44 -9 0
-29 -7 -44 -17 -24 -14 -33 -14 -59 -3 -44 18 -145 120 -132 133 7 7 17 2 31
-16 23 -28 50 -36 50 -14 0 7 -5 18 -11 24 -16 16 -3 31 34 41 44 12 50 6 31
-31z m-630 -2 c-4 -8 -11 -15 -16 -15 -6 0 -5 6 2 15 7 8 14 15 16 15 2 0 1
-7 -2 -15z m86 -25 c0 -6 -126 -135 -175 -179 -2 -1 -8 0 -14 4 -19 11 72 127
94 119 17 -7 31 16 16 26 -8 5 -4 13 15 24 14 10 23 13 20 7 -5 -7 -1 -9 8 -5
9 3 16 10 16 16 0 5 5 6 10 3 6 -3 10 -10 10 -15z m1455 -156 c28 -93 58 -184
68 -203 21 -43 22 -41 -7 -41 -14 0 -26 7 -29 17 -62 209 -107 372 -107 386 0
10 6 17 12 15 7 -3 35 -81 63 -174z m254 -35 c13 -33 21 -63 18 -65 -6 -6 -57
99 -57 115 0 29 20 4 39 -50z m-1191 9 c-8 -22 -36 -34 -50 -20 -10 10 -10 15
2 22 21 14 52 12 48 -2z m1160 -97 c12 -21 22 -46 22 -55 0 -9 3 -16 8 -16 4
0 8 -11 8 -25 1 -15 -4 -25 -11 -25 -11 0 -28 40 -62 143 -10 32 13 17 35 -22z
m-373 -91 l16 -30 -48 0 -47 0 29 30 c16 17 30 30 32 30 1 0 9 -13 18 -30z
m-1379 -15 c17 -13 15 -14 -31 -14 -46 0 -48 1 -31 14 11 8 25 15 31 15 6 0
20 -7 31 -15z m3216 -7 c-7 -7 -12 -8 -12 -2 0 14 12 26 19 19 2 -3 -1 -11 -7
-17z m154 7 c17 -13 13 -14 -45 -15 -80 0 -71 18 15 29 5 0 19 -6 30 -14z
m513 3 c16 2 32 -1 35 -7 5 -7 -7 -11 -33 -11 -33 0 -41 4 -40 18 0 9 3 12 5
6 2 -6 17 -9 33 -6z m231 -3 c11 -13 8 -15 -14 -15 -23 0 -25 2 -14 15 16 18
13 18 28 0z m600 0 c0 -12 -12 -15 -57 -14 -36 1 -47 4 -28 7 26 4 28 5 10 12
-15 6 -7 9 28 9 35 1 47 -3 47 -14z m120 -5 c22 -7 21 -8 -12 -9 -21 -1 -38 4
-38 9 0 11 14 11 50 0z m-1217 -7 c-7 -2 -19 -2 -25 0 -7 3 -2 5 12 5 14 0 19
-2 13 -5z"/>
<path d="M410 6302 c-41 -13 -81 -26 -88 -28 -7 -2 -10 -8 -7 -14 4 -6 20 -4
43 6 20 9 53 21 72 26 19 5 42 16 50 24 8 8 12 13 10 13 -3 -1 -39 -13 -80
-27z"/>
<path d="M270 6100 c-30 -11 -56 -20 -57 -20 -2 0 -3 -7 -3 -16 0 -11 5 -14
18 -9 9 4 31 11 47 15 32 7 95 38 95 45 0 10 -47 3 -100 -15z"/>
<path d="M1105 5830 c-3 -5 -1 -10 4 -10 6 0 11 5 11 10 0 6 -2 10 -4 10 -3 0
-8 -4 -11 -10z"/>
<path d="M151 4536 c-8 -10 -9 -16 -1 -21 5 -3 13 1 16 10 9 22 -1 29 -15 11z"/>
<path d="M1467 3814 c-3 -3 -3 -12 -1 -19 3 -7 -4 -16 -15 -20 -12 -3 -21 -11
-21 -16 0 -6 4 -8 8 -5 5 3 7 -9 5 -27 l-4 -32 16 35 c9 19 21 43 26 52 15 30
6 52 -14 32z"/>
<path d="M1410 3671 c0 -5 7 -11 15 -15 9 -3 15 0 15 9 0 8 -7 15 -15 15 -8 0
-15 -4 -15 -9z"/>
<path d="M386 3683 c-6 -14 -5 -15 5 -6 7 7 10 15 7 18 -3 3 -9 -2 -12 -12z"/>
<path d="M1526 12678 c-3 -68 -5 -139 -4 -158 1 -19 -7 -62 -17 -95 -13 -43
-19 -96 -21 -185 -1 -73 -10 -179 -23 -255 -12 -71 -26 -207 -31 -302 -5 -95
-14 -201 -19 -235 -6 -35 -15 -130 -21 -213 -11 -144 -28 -329 -50 -540 -5
-55 -17 -163 -25 -240 -31 -297 -36 -362 -38 -435 -2 -84 -3 -84 78 -59 51 15
96 -3 105 -41 6 -24 8 -25 100 -27 85 -1 182 -12 365 -43 33 -5 89 -10 125
-10 44 0 88 -9 135 -26 39 -14 90 -29 115 -33 74 -14 142 -33 185 -52 22 -9
83 -26 135 -37 88 -19 309 -97 355 -126 11 -7 70 -34 130 -59 68 -29 138 -68
183 -102 113 -85 162 -117 229 -151 l62 -32 83 107 c45 58 85 108 88 111 3 3
18 24 33 47 22 31 26 46 19 60 -5 10 -11 79 -13 153 l-4 134 33 7 c92 19 251
-30 331 -101 18 -16 39 -30 45 -30 24 0 183 58 311 113 191 82 202 89 208 117
7 35 -2 40 -48 30 -22 -5 -71 -14 -110 -20 -38 -5 -144 -22 -235 -36 -148 -23
-183 -25 -341 -20 -195 6 -316 30 -420 82 -46 24 -123 76 -139 94 -3 3 -39 33
-80 65 -41 33 -81 66 -88 75 -95 111 -358 584 -444 798 -44 110 -118 349 -118
382 0 15 -13 56 -29 91 -16 35 -43 113 -60 174 -85 293 -31 660 133 908 54 81
158 181 218 211 l53 25 -736 1 -737 0 -6 -122z m1715 -2682 c20 -23 58 -52 85
-64 27 -13 58 -28 69 -35 74 -41 110 -57 161 -72 112 -33 144 -46 144 -62 0
-9 -6 -21 -14 -27 -11 -9 -12 -22 -6 -61 20 -115 6 -133 -52 -66 -19 23 -46
41 -64 45 -38 9 -85 49 -108 94 -16 32 -16 33 6 41 21 8 20 9 -20 29 -50 24
-52 19 -26 -67 8 -29 12 -56 9 -59 -10 -10 -85 78 -85 99 0 23 -17 34 -34 20
-10 -8 -20 -4 -41 16 -41 41 -95 129 -100 162 -2 16 -11 41 -20 55 -9 14 -14
30 -10 36 8 12 52 -23 106 -84z"/>
<path d="M3190 9983 c0 -20 42 -85 49 -76 3 4 9 11 13 14 4 3 -8 21 -27 39
-19 19 -35 29 -35 23z"/>
<path d="M3280 9896 c0 -2 7 -7 16 -10 8 -3 12 -2 9 4 -6 10 -25 14 -25 6z"/>
<path d="M3550 9750 c0 -10 -7 -23 -16 -28 -14 -8 -12 -10 10 -16 15 -4 31 -4
36 -1 14 9 12 39 -2 53 -18 18 -28 15 -28 -8z"/>
<path d="M3171 12795 c3 -2 104 -9 224 -14 321 -15 535 -47 870 -131 266 -66
564 -254 730 -459 29 -36 70 -84 91 -106 40 -41 134 -190 134 -212 0 -8 -36
-11 -132 -10 l-132 2 -24 35 c-19 29 -23 44 -19 85 2 28 8 57 11 66 6 14 1 16
-37 12 -142 -16 -287 111 -263 230 6 28 5 29 -22 22 -15 -3 -40 -13 -56 -21
-59 -29 -138 -11 -195 44 -34 32 -70 105 -71 141 l0 25 -27 -26 c-52 -47 -82
-61 -136 -61 -87 1 -166 46 -220 125 l-25 38 -18 -28 c-9 -15 -25 -32 -33 -39
-45 -35 -180 10 -258 87 -23 22 -44 40 -47 40 -2 0 -6 -15 -8 -32 -3 -29 -7
-33 -35 -36 -31 -3 -111 32 -178 77 -38 26 -49 26 -35 1 26 -48 -24 -100 -98
-100 -23 0 -62 11 -96 28 -31 16 -56 27 -56 26 0 -2 10 -22 21 -44 59 -113
-32 -228 -159 -199 -25 5 -46 8 -48 6 -2 -1 9 -27 23 -57 37 -76 42 -154 14
-209 -25 -49 -72 -81 -118 -81 -18 0 -33 -3 -33 -6 0 -3 13 -23 29 -43 49 -63
64 -102 68 -181 5 -86 -12 -131 -63 -164 l-29 -20 48 -45 c29 -26 60 -70 78
-109 28 -58 31 -72 27 -131 -3 -36 -12 -81 -22 -98 -16 -32 -16 -32 11 -47 74
-38 121 -127 130 -248 l6 -78 61 58 c77 74 278 212 431 298 17 9 32 20 35 24
4 5 229 94 313 123 18 7 23 32 8 41 -11 7 -260 -78 -325 -111 -72 -37 -98 -41
-301 -53 -100 -6 -205 -15 -235 -21 -118 -22 -120 -22 -120 -5 0 9 8 16 18 16
9 0 31 8 47 18 29 18 119 47 280 92 44 13 109 31 144 41 36 11 94 19 136 19
39 0 85 5 101 10 16 6 76 13 134 18 96 6 105 9 105 27 0 18 -6 20 -65 17 -36
-1 -102 -7 -146 -14 -45 -6 -122 -8 -170 -5 -118 7 -667 128 -681 149 -4 7 39
8 128 4 74 -3 217 -9 319 -12 147 -5 204 -11 277 -30 51 -13 130 -28 175 -34
183 -25 170 -25 166 -4 -3 20 -40 31 -173 52 -107 17 -240 59 -329 104 -304
153 -576 308 -539 308 4 0 44 -14 88 -31 44 -18 190 -69 325 -114 135 -45 268
-96 295 -112 73 -43 337 -163 347 -157 30 19 -6 43 -151 106 -109 47 -240 129
-331 207 -14 12 -36 32 -50 44 -138 117 -410 370 -410 380 0 5 9 3 19 -4 27
-20 499 -335 541 -362 19 -12 54 -39 76 -60 37 -34 84 -72 269 -217 28 -22 56
-40 63 -40 33 0 -2 42 -105 125 -200 162 -223 186 -360 370 -166 223 -226 302
-278 370 -8 10 -15 23 -15 28 0 13 511 -509 573 -585 223 -276 228 -281 242
-258 6 9 -30 58 -206 281 -36 46 -90 129 -119 184 -65 124 -118 214 -140 240
-26 30 -112 186 -107 192 6 6 78 -83 122 -152 18 -27 47 -63 65 -80 57 -53
215 -268 266 -360 27 -50 71 -134 97 -187 49 -101 62 -117 79 -100 11 11 -86
223 -157 342 -18 30 -38 73 -45 95 -23 72 -130 308 -154 339 -26 35 -54 86
-38 71 45 -44 167 -198 193 -243 18 -32 46 -75 64 -97 18 -22 42 -58 53 -80
25 -47 86 -256 103 -351 10 -60 29 -88 46 -70 9 9 -15 133 -59 306 -22 85 -44
180 -49 210 -4 31 -18 77 -29 104 -14 30 -23 76 -26 124 -2 42 -2 73 0 67 2
-5 16 -49 30 -96 16 -55 38 -102 62 -134 20 -26 45 -74 55 -106 10 -32 26 -71
36 -86 16 -24 18 -50 17 -215 -2 -173 0 -188 16 -188 23 0 30 53 30 219 0 72
7 156 15 196 8 38 15 79 15 91 0 25 90 257 97 250 3 -2 -3 -41 -12 -85 -20
-99 -22 -180 -8 -291 9 -79 8 -91 -14 -165 -14 -44 -35 -108 -49 -142 -29 -74
-31 -103 -6 -103 12 0 27 23 50 74 17 41 32 79 32 85 0 41 56 141 112 201 35
37 80 91 101 121 38 54 88 111 121 138 19 16 -17 -56 -56 -111 -25 -36 -90
-170 -113 -233 -19 -50 -130 -209 -179 -254 -29 -27 -32 -43 -13 -60 16 -12
36 6 80 73 37 56 135 154 160 161 20 6 70 27 282 125 168 77 170 74 22 -37
-56 -42 -104 -79 -107 -83 -30 -36 -147 -113 -235 -155 -104 -50 -189 -115
-168 -128 5 -3 38 9 74 27 76 38 213 96 229 96 20 0 0 -39 -40 -80 -29 -30
-47 -40 -72 -41 -63 -1 -153 -25 -156 -41 -5 -26 11 -28 86 -14 81 15 100 10
82 -24 -11 -20 -18 -22 -81 -18 -59 3 -69 1 -69 -13 0 -21 20 -29 76 -29 31 0
46 -5 51 -16 10 -26 -10 -33 -52 -18 -51 18 -65 18 -65 -1 0 -9 6 -17 13 -19
76 -24 107 -41 107 -57 0 -25 -16 -24 -69 6 -49 28 -74 32 -69 10 2 -8 48 -41
103 -73 92 -53 101 -61 114 -101 8 -24 10 -46 5 -51 -5 -5 -57 33 -122 90 -62
55 -117 100 -122 100 -21 0 -9 -37 18 -57 15 -11 59 -49 98 -84 39 -35 91 -83
117 -106 47 -42 47 -42 47 -107 0 -36 -4 -66 -10 -66 -5 0 -21 15 -34 33 -241
309 -296 370 -296 327 0 -6 60 -90 133 -188 74 -97 139 -187 146 -199 6 -13
19 -23 29 -24 13 0 12 -2 -5 -9 -27 -11 -43 -40 -43 -79 0 -20 -4 -29 -12 -25
-14 5 -138 184 -138 198 0 5 -18 46 -40 92 -22 45 -51 112 -66 148 -20 50 -31
66 -46 66 -16 0 -18 -4 -12 -22 15 -50 116 -282 149 -344 19 -36 35 -73 35
-81 0 -8 15 -81 34 -162 35 -147 81 -429 73 -438 -6 -5 -34 67 -87 222 -21 61
-65 178 -98 260 -63 154 -77 206 -116 427 -12 70 -26 131 -29 135 -4 4 -12 2
-19 -5 -8 -8 -3 -62 21 -209 33 -207 38 -314 20 -443 -5 -41 -18 -158 -29
-259 -11 -101 -22 -186 -24 -189 -9 -8 -25 164 -46 488 -6 85 -13 165 -15 177
-3 12 1 73 9 135 26 205 30 292 13 307 -23 18 -28 2 -38 -107 -22 -263 -43
-355 -119 -532 -18 -41 -59 -153 -91 -249 -32 -95 -61 -176 -64 -179 -18 -18
31 305 74 489 11 48 25 117 31 154 6 37 35 126 64 199 66 162 89 232 81 246
-16 25 -35 6 -56 -57 -12 -38 -41 -111 -64 -163 -23 -52 -49 -115 -58 -140 -9
-25 -47 -86 -84 -136 -107 -142 -126 -173 -181 -279 -120 -235 -134 -248 -83
-77 40 133 90 260 156 390 30 60 55 114 55 120 0 6 28 47 63 92 94 125 187
262 187 277 0 7 -8 13 -18 13 -11 0 -38 -31 -72 -81 -30 -45 -67 -93 -81 -108
-14 -16 -50 -58 -78 -94 -28 -36 -97 -105 -153 -154 -56 -48 -112 -98 -125
-111 -46 -45 -213 -246 -213 -255 0 -3 20 -5 44 -5 51 1 100 -25 134 -72 25
-33 62 -131 62 -162 0 -17 4 -16 39 8 96 63 226 3 256 -118 4 -16 9 -28 11
-28 3 0 18 15 34 34 41 46 78 59 150 54 66 -5 117 -36 155 -96 21 -33 35 -41
35 -19 0 23 58 95 89 112 38 19 131 19 178 0 20 -8 51 -31 69 -51 26 -26 34
-31 34 -18 0 10 10 38 21 62 39 81 118 104 194 57 22 -14 47 -27 56 -31 21 -7
33 -101 19 -139 -13 -33 -13 -70 -1 -93 15 -28 41 -154 41 -199 0 -36 4 -45
28 -57 15 -8 48 -37 73 -65 37 -40 49 -48 58 -38 6 9 38 14 88 15 43 1 79 6
81 11 2 6 10 7 19 4 13 -5 14 0 8 28 -4 19 -12 39 -17 46 -6 7 -5 14 2 18 5 3
10 18 10 32 0 41 22 102 45 127 15 17 38 26 76 31 90 11 221 35 277 51 l52 15
-15 36 c-9 21 -21 41 -28 45 -8 5 -7 8 5 8 9 0 25 -16 37 -36 20 -33 49 -39
37 -8 -3 8 -1 14 4 14 16 0 11 22 -7 36 -25 18 0 18 36 -1 33 -16 37 -24 46
-91 4 -27 11 -55 15 -62 3 -7 42 -26 86 -41 94 -33 287 -129 364 -181 66 -44
185 -110 198 -110 23 0 40 213 36 443 -3 221 -2 230 20 280 12 29 34 66 48 82
13 17 42 59 63 95 22 36 69 111 107 168 88 134 91 154 43 235 -21 34 -67 101
-102 148 -34 48 -63 91 -63 96 0 17 -31 38 -50 35 -13 -2 -19 7 -24 35 -9 51
-34 127 -61 188 -12 28 -29 76 -39 107 -11 38 -26 64 -42 75 -14 10 -41 30
-59 46 -18 15 -37 27 -42 27 -5 0 -51 27 -102 60 -52 32 -110 64 -130 71 -46
15 -184 93 -236 134 -22 17 -78 57 -125 88 -86 56 -166 114 -303 219 -41 31
-98 85 -127 120 -89 105 -177 180 -385 329 -49 35 -92 67 -95 70 -3 3 -24 16
-47 28 -42 21 -47 21 -774 21 -403 0 -730 -2 -728 -5z m1991 -1458 c15 -24 9
-39 -13 -34 -16 4 -28 -1 -42 -19 -14 -18 -23 -22 -30 -15 -17 17 -45 13 -66
-8 -20 -20 -20 -20 2 -27 12 -4 43 -7 69 -6 38 2 49 -2 58 -18 9 -18 29 -25
114 -44 27 -7 28 -8 11 -26 -12 -14 -31 -20 -59 -20 -30 0 -49 -7 -69 -26 -39
-36 -81 -40 -156 -15 -69 23 -112 26 -139 12 -9 -5 -41 -12 -69 -16 -45 -6
-53 -4 -53 9 0 9 7 16 15 16 8 0 15 5 15 10 0 6 6 10 14 10 7 0 16 8 20 18 3
9 9 23 12 30 4 7 -2 12 -16 12 -12 0 -18 5 -15 10 3 6 -4 10 -16 10 -19 0 -20
2 -8 16 8 10 15 12 17 5 6 -17 30 -13 40 6 9 14 10 14 16 -5 9 -27 30 -28 60
-4 19 14 21 20 10 30 -7 6 -17 12 -22 12 -5 0 -17 9 -26 19 -18 19 -17 20 20
36 22 9 58 20 82 24 24 5 46 12 50 16 11 11 166 -5 174 -18z m-69 -404 c11
-59 17 -80 39 -125 18 -38 28 -47 49 -48 27 0 49 -16 49 -37 0 -18 -31 -16
-57 2 -21 14 -26 14 -64 -6 -29 -15 -51 -19 -75 -15 -18 4 -35 2 -39 -4 -3 -5
-20 -10 -37 -10 -27 0 -30 2 -24 25 4 14 14 34 24 45 32 35 42 49 42 59 0 5
16 32 35 61 19 29 35 58 35 66 0 25 18 15 23 -13z m499 -103 c3 -16 0 -30 -5
-30 -5 0 -4 -6 2 -14 9 -11 4 -20 -24 -45 -20 -17 -42 -31 -50 -31 -8 0 -15
-4 -15 -8 0 -15 -50 -32 -93 -32 -43 0 -75 23 -90 62 -7 20 19 38 55 38 13 0
33 6 44 14 11 8 49 16 83 18 59 3 63 4 68 30 7 37 20 36 25 -2z m-925 -8 c12
-7 44 -15 70 -19 26 -3 53 -10 59 -15 16 -12 86 5 122 31 31 22 52 27 52 13 0
-20 -27 -62 -45 -70 -11 -5 -41 -29 -68 -52 -26 -24 -68 -54 -92 -67 l-45 -23
-25 22 c-14 12 -25 27 -25 34 0 7 -6 17 -13 21 -14 8 -37 85 -37 122 0 21 13
22 47 3z m-125 -115 c-24 -25 -27 -52 -12 -91 10 -28 0 -35 -20 -11 -20 25 14
125 43 125 6 0 1 -10 -11 -23z m11 -177 c4 0 7 9 7 20 0 11 7 20 15 20 17 0
20 -16 5 -25 -18 -11 -10 -35 11 -35 18 0 19 -2 9 -15 -20 -25 -55 -18 -69 13
-8 15 -18 36 -23 47 -10 18 -8 18 14 -2 13 -13 27 -23 31 -23z m677 -60 c16
-25 6 -35 -36 -37 -21 -1 -52 -4 -69 -6 -16 -2 -37 -5 -45 -6 -13 -1 -13 -3 0
-10 8 -6 18 -7 23 -4 12 7 77 -6 77 -16 0 -5 -16 -15 -35 -23 -28 -11 -49 -12
-100 -3 -58 9 -68 14 -85 43 -43 71 -27 81 132 79 102 -2 131 -5 138 -17z"/>
<path d="M5000 10420 c0 -5 7 -10 15 -10 8 0 15 5 15 10 0 6 -7 10 -15 10 -8
0 -15 -4 -15 -10z"/>
<path d="M3980 11632 c-60 -27 -90 -81 -90 -162 0 -61 32 -130 84 -179 34 -33
36 -34 98 -27 35 3 83 16 108 29 107 53 111 189 9 284 -53 49 -160 77 -209 55z
m150 -72 c82 -42 111 -134 59 -186 -15 -14 -52 -36 -82 -49 -55 -22 -56 -22
-87 -4 -36 22 -66 68 -75 115 -8 45 11 110 38 129 30 21 100 19 147 -5z"/>
<path d="M3814 11302 c-22 -15 -76 -54 -120 -88 -107 -81 -253 -172 -317 -196
-59 -22 -214 -99 -297 -147 -30 -18 -63 -35 -72 -38 -27 -8 -22 -33 7 -33 58
0 153 -134 171 -240 l7 -45 11 30 c18 47 61 125 108 192 92 132 244 317 281
342 125 85 290 227 281 243 -8 13 -16 10 -60 -20z"/>
<path d="M3878 9783 c-42 -11 -6 -53 45 -53 14 0 27 -6 29 -12 9 -25 -4 -38
-38 -38 l-34 0 0 -60 c0 -73 7 -75 98 -28 l62 32 -35 18 c-42 22 -47 53 -10
70 20 9 37 7 85 -9 33 -11 60 -16 60 -12 0 4 -15 20 -34 37 -46 40 -170 70
-228 55z"/>
<path d="M4050 9665 c0 -8 7 -15 15 -15 8 0 15 4 15 9 0 5 -7 11 -15 15 -9 3
-15 0 -15 -9z"/>
<path d="M6172 8501 c-9 -5 -7 -17 8 -47 l19 -39 1 42 c0 44 -8 57 -28 44z"/>
<path d="M1090 7391 c0 -12 5 -21 10 -21 6 0 10 6 10 14 0 8 -4 18 -10 21 -5
3 -10 -3 -10 -14z"/>
<path d="M847 6935 l-28 -35 31 0 c22 0 30 5 30 18 0 14 2 15 10 2 5 -8 11
-12 14 -9 3 3 -3 17 -12 31 l-18 27 -27 -34z"/>
<path d="M290 6760 c-26 -14 -30 -19 -15 -19 33 -1 63 10 69 25 7 19 -12 17
-54 -6z"/>
<path d="M2105 6500 c-3 -5 -1 -10 4 -10 6 0 11 5 11 10 0 6 -2 10 -4 10 -3 0
-8 -4 -11 -10z"/>
<path d="M140 6490 c0 -6 7 -10 15 -10 8 0 15 2 15 4 0 2 -7 6 -15 10 -8 3
-15 1 -15 -4z"/>
<path d="M2110 6464 c0 -16 23 -44 35 -44 18 0 20 16 3 23 -10 4 -10 6 0 6 23
2 12 21 -13 21 -14 0 -25 -3 -25 -6z"/>
<path d="M2091 6419 c-1 -9 11 -24 27 -33 26 -17 27 -17 6 1 -11 10 -23 25
-27 33 -4 12 -6 12 -6 -1z"/>
<path d="M7062 5483 c31 -20 37 -36 33 -94 -4 -50 18 -84 54 -84 13 0 26 -5
28 -11 5 -14 -39 -27 -60 -18 -12 4 -14 0 -10 -17 4 -16 2 -20 -8 -17 -8 3
-13 13 -13 22 1 9 -2 16 -7 16 -5 0 -9 -9 -9 -19 0 -27 -57 -81 -85 -81 -28 0
-39 -32 -51 -145 -7 -71 -32 -125 -59 -125 -7 0 -15 8 -18 18 -3 12 -6 8 -12
-13 -12 -49 -71 -147 -109 -184 -35 -34 -46 -64 -26 -76 6 -3 10 -17 10 -30 0
-12 6 -25 14 -28 21 -8 154 30 183 53 14 11 31 20 38 20 7 0 52 18 100 41 81
37 163 92 191 128 11 14 28 178 26 261 -1 70 -13 125 -24 109 -6 -9 -7 6 -3
41 9 80 11 207 4 214 -7 7 -164 36 -194 36 -17 0 -16 -3 7 -17z m132 -262 c9
-15 -18 -61 -37 -61 -16 0 -37 35 -37 61 0 11 67 12 74 0z"/>
<path d="M6785 5351 c-8 -27 -42 -55 -50 -42 -8 15 -42 14 -51 -1 -4 -6 -10
-48 -15 -93 -4 -45 -14 -103 -23 -129 -23 -68 -21 -101 9 -120 14 -9 25 -22
25 -29 0 -15 -37 -51 -60 -60 -9 -3 -4 -6 11 -6 63 -2 131 106 154 244 13 77
13 78 55 71 l39 -6 -5 47 c-5 46 -47 128 -71 137 -7 3 -15 -3 -18 -13z"/>
<path d="M2898 4613 c-22 -5 -22 -3 -2 -42 11 -22 13 -36 6 -44 -20 -24 29
-62 51 -40 4 3 1 13 -6 22 -17 20 -38 91 -31 103 3 4 4 7 2 7 -2 -1 -11 -3
-20 -6z"/>
<path d="M2990 4424 c0 -9 9 -27 20 -41 24 -31 25 -27 5 21 -16 39 -25 46 -25
20z"/>
<path d="M5080 4351 c0 -5 5 -13 10 -16 6 -3 10 -2 10 4 0 5 -4 13 -10 16 -5
3 -10 2 -10 -4z"/>
<path d="M5063 4336 c1 -11 9 -21 17 -23 10 -3 11 -2 4 4 -6 4 -14 15 -17 23
-5 11 -6 9 -4 -4z"/>
<path d="M3065 4310 c3 -5 8 -10 11 -10 2 0 4 5 4 10 0 6 -5 10 -11 10 -5 0
-7 -4 -4 -10z"/>
<path d="M3150 4169 c0 -9 9 -28 20 -42 11 -14 20 -30 20 -35 0 -6 4 -14 10
-17 13 -8 3 18 -27 70 -12 22 -23 33 -23 24z"/>
<path d="M3165 3060 c10 -11 25 -20 33 -20 9 0 6 7 -11 20 -14 11 -29 20 -33
20 -4 0 1 -9 11 -20z"/>
<path d="M5525 2995 c-44 -8 -95 -17 -113 -20 -75 -13 -11 -23 146 -23 92 0
199 -5 237 -11 86 -13 85 -13 85 -2 0 16 -63 44 -120 52 -113 17 -157 18 -235
4z"/>
<path d="M5150 2640 c-27 -17 11 -20 70 -6 l55 14 -55 1 c-30 0 -62 -3 -70 -9z"/>
<path d="M7018 2410 c-11 -32 -41 -55 -58 -45 -6 3 -10 -1 -10 -9 0 -9 -4 -16
-10 -16 -5 0 -18 -19 -30 -42 -11 -24 -28 -55 -37 -70 -17 -26 -17 -28 15 -67
18 -22 32 -43 32 -46 0 -13 45 -43 57 -38 18 7 16 78 -2 97 -20 20 -19 46 3
46 16 1 16 1 0 14 -32 24 -20 34 32 29 46 -4 50 -2 64 26 11 21 13 32 5 37 -6
4 -8 20 -4 40 12 65 -36 102 -57 44z"/>
<path d="M6438 2330 c-2 -7 -23 -13 -45 -14 -50 -2 -52 -4 -63 -52 -6 -27 -5
-41 3 -46 20 -13 75 -9 91 7 8 8 24 15 35 15 14 0 21 6 21 20 0 25 -36 86 -42
70z"/>
<path d="M3370 2295 c0 -12 34 -65 42 -65 12 0 -16 63 -30 68 -7 2 -12 1 -12
-3z"/>
<path d="M3277 2275 c-8 -18 11 -31 25 -17 11 11 3 32 -12 32 -4 0 -10 -7 -13
-15z"/>
<path d="M5924 2265 c-19 -19 -23 -30 -15 -38 15 -15 61 11 61 34 0 30 -19 31
-46 4z"/>
<path d="M6080 2252 c0 -15 7 -18 43 -16 59 2 60 2 43 19 -8 8 -31 15 -50 15
-28 0 -36 -4 -36 -18z"/>
<path d="M8355 2250 c-3 -5 1 -10 9 -10 9 0 16 5 16 10 0 6 -4 10 -9 10 -6 0
-13 -4 -16 -10z"/>
<path d="M6194 2239 c-2 -4 9 -12 25 -17 23 -8 32 -7 41 3 8 10 3 14 -25 17
-20 2 -38 1 -41 -3z"/>
<path d="M3062 2224 c-13 -9 -30 -13 -39 -10 -31 12 -71 -53 -47 -77 10 -9 34
4 34 19 0 17 25 30 73 37 33 5 39 3 47 -16 6 -17 4 -26 -11 -39 -10 -9 -19
-22 -19 -30 0 -10 -3 -9 -10 2 -8 13 -10 12 -10 -2 0 -10 6 -18 13 -19 6 -1
23 -2 36 -2 13 -1 29 -10 35 -20 9 -15 7 -22 -11 -36 -33 -28 -91 -36 -112
-17 -10 9 -21 16 -24 16 -14 0 -7 -38 11 -60 17 -21 18 -21 82 -4 85 23 103
39 96 83 -3 19 -15 44 -26 56 -15 16 -19 30 -15 48 7 25 -8 65 -29 79 -18 13
-50 9 -74 -8z"/>
<path d="M3380 2200 c-8 -4 -28 -13 -44 -20 -24 -9 -27 -13 -15 -21 7 -5 28
-6 46 -3 39 7 57 -19 47 -71 -5 -28 -3 -35 10 -35 8 0 20 9 26 20 14 26 -3 84
-29 102 -10 7 -20 18 -22 24 -2 7 -10 8 -19 4z"/>
<path d="M7492 2188 c-29 -12 -50 -24 -45 -27 10 -7 11 -77 1 -87 -5 -4 -8
-19 -8 -34 0 -15 -3 -30 -6 -33 -14 -14 -11 -68 5 -86 19 -22 76 -42 96 -35
18 7 29 64 21 105 -5 27 -2 32 31 46 27 11 45 13 68 6 43 -14 52 -8 47 33 -3
23 1 41 13 54 16 18 16 20 -13 48 -26 25 -37 29 -93 30 -42 0 -82 -7 -117 -20z
m-32 -192 c0 -3 -4 -8 -10 -11 -5 -3 -10 -1 -10 4 0 6 5 11 10 11 6 0 10 -2
10 -4z"/>
<path d="M2832 2173 c-12 -2 -19 -9 -16 -15 4 -6 -1 -8 -15 -3 -57 18 -92 -55
-51 -107 14 -19 18 -34 14 -60 -7 -40 18 -98 41 -98 35 0 117 23 136 39 18 15
21 24 15 54 -4 20 -14 44 -24 53 -11 12 -17 34 -17 64 0 70 -18 85 -83 73z
m46 -52 c28 -24 28 -35 -3 -49 -45 -21 -100 -25 -113 -10 -22 27 25 67 89 77
3 1 16 -7 27 -18z m30 -103 c16 -16 15 -43 -2 -57 -7 -6 -34 -14 -59 -17 -44
-6 -46 -5 -53 20 -8 34 4 47 53 56 21 4 40 8 44 9 3 0 10 -4 17 -11z"/>
<path d="M2536 2095 c-27 -8 -53 -20 -58 -27 -11 -18 -1 -57 23 -91 14 -19 18
-32 11 -39 -9 -9 -3 -51 13 -90 14 -35 168 -7 180 32 9 29 -3 75 -25 95 -13
12 -18 25 -14 41 3 13 1 39 -6 58 -10 32 -15 36 -43 35 -18 0 -54 -7 -81 -14z
m98 -38 c23 -22 2 -53 -44 -65 -47 -12 -66 -8 -74 14 -9 24 12 52 41 57 53 8
64 7 77 -6z m34 -128 c3 -24 -3 -29 -44 -45 -53 -20 -79 -12 -79 27 0 30 37
50 85 47 30 -3 35 -7 38 -29z"/>
<path d="M7084 2023 c1 -28 6 -39 19 -41 14 -3 17 2 13 20 -12 64 -34 78 -32
21z"/>
<path d="M7040 2025 c0 -14 4 -25 9 -25 4 0 6 11 3 25 -2 14 -6 25 -8 25 -2 0
-4 -11 -4 -25z"/>
<path d="M2365 2011 c3 -18 5 -41 5 -49 0 -10 3 -13 10 -6 6 6 4 24 -6 49 -15
39 -15 39 -9 6z"/>
<path d="M2190 2000 c-8 -5 -10 -10 -5 -10 6 0 17 5 25 10 8 5 11 10 5 10 -5
0 -17 -5 -25 -10z"/>
<path d="M2080 1963 c0 -25 -4 -28 -47 -38 -29 -6 -33 -4 -33 14 0 12 -5 21
-11 21 -6 0 -8 -8 -5 -17 2 -10 7 -33 11 -50 4 -18 11 -33 17 -33 6 0 8 3 5 6
-13 14 14 42 44 46 25 4 33 1 37 -14 2 -10 9 -18 14 -18 10 0 4 24 -18 74 -11
26 -13 28 -14 9z"/>
<path d="M1930 1942 c-21 -7 -30 -23 -30 -54 0 -36 -14 -35 -41 1 -14 20 -27
27 -41 23 -12 -3 -17 -10 -14 -19 3 -8 6 -22 6 -32 0 -9 7 -26 15 -37 9 -12
13 -13 11 -4 -22 79 -11 92 35 38 31 -38 39 -35 46 22 7 50 22 48 39 -6 9 -30
12 -33 12 -14 1 41 -21 88 -38 82z"/>
<path d="M2328 1943 c7 -3 16 -2 19 1 4 3 -2 6 -13 5 -11 0 -14 -3 -6 -6z"/>
<path d="M4946 1890 c-17 -30 -54 -47 -81 -36 -8 3 -32 -4 -54 -16 l-39 -21
-45 22 c-39 19 -49 20 -66 9 -17 -10 -21 -23 -21 -69 0 -50 -3 -57 -32 -79
-26 -19 -42 -23 -100 -21 -37 1 -67 -2 -66 -6 1 -4 -7 -23 -18 -40 -17 -29
-24 -33 -61 -33 -24 0 -43 3 -43 8 0 4 -18 7 -40 7 -22 0 -40 -3 -40 -7 0 -5
4 -8 10 -8 5 0 -1 -20 -14 -44 -13 -24 -26 -60 -30 -80 -4 -20 -12 -36 -19
-36 -6 0 -1 -7 11 -16 12 -8 27 -12 34 -8 7 4 8 3 4 -5 -4 -6 0 -14 9 -17 9
-4 46 -26 83 -51 37 -24 77 -46 89 -49 13 -4 20 -11 16 -17 -4 -6 0 -8 9 -4
10 3 32 -8 57 -29 33 -29 53 -37 108 -45 37 -5 84 -15 104 -21 22 -6 60 -8 93
-4 66 9 91 33 101 99 9 63 54 318 76 435 18 100 26 212 12 199 -3 -4 -11 -3
-18 3 -8 6 -17 0 -29 -20z"/>
<path d="M2240 1828 c0 -18 -7 -27 -22 -32 -39 -10 -56 -7 -61 12 -3 10 -5 6
-6 -11 0 -16 4 -38 10 -50 l12 -21 8 21 c10 29 59 40 76 17 20 -27 26 -10 13
33 -16 50 -30 64 -30 31z"/>
<path d="M2045 1796 c-22 -7 -39 -17 -38 -22 1 -5 4 -26 7 -46 3 -20 11 -40
16 -43 6 -4 31 1 56 11 44 17 46 19 41 52 -6 33 -23 63 -36 61 -3 -1 -24 -7
-46 -13z m55 -20 c22 -27 8 -60 -28 -67 -29 -6 -35 -4 -43 18 -13 36 -11 43
14 53 32 13 43 12 57 -4z"/>
<path d="M3661 1664 c0 -11 3 -14 6 -6 3 7 2 16 -1 19 -3 4 -6 -2 -5 -13z"/>
<path d="M3917 1588 c2 -5 -1 -8 -8 -8 -20 0 -2 -13 36 -26 19 -6 35 -8 35 -3
0 5 7 9 15 9 8 0 15 9 15 20 0 17 -6 20 -49 17 -27 -1 -47 -5 -44 -9z"/>
<path d="M3998 1428 c6 -6 18 -8 28 -6 14 3 12 5 -9 10 -19 3 -25 2 -19 -4z"/>
<path d="M4055 1350 c3 -5 13 -10 21 -10 8 0 12 5 9 10 -3 6 -13 10 -21 10 -8
0 -12 -4 -9 -10z"/>
<path d="M4210 1358 c3 -3 21 -10 40 -17 19 -6 30 -7 25 -2 -6 5 -23 13 -40
17 -16 4 -28 5 -25 2z"/>
<path d="M5850 1148 c0 -7 7 -26 15 -42 19 -36 19 -56 0 -92 -14 -27 -13 -29
3 -33 9 -2 22 -8 29 -13 7 -5 21 -7 33 -3 11 4 20 2 20 -4 0 -19 26 -12 49 13
l23 24 -21 21 c-12 12 -25 21 -30 21 -13 0 -20 23 -14 52 4 19 -2 30 -22 47
-30 23 -85 29 -85 9z"/>
<path d="M7913 965 c-17 -19 -16 -29 5 -48 22 -20 71 -22 96 -4 18 13 17 15
-9 35 -15 12 -33 22 -41 22 -7 0 -18 2 -26 5 -7 2 -19 -2 -25 -10z"/>
<path d="M8111 954 c-12 -15 -21 -29 -21 -33 0 -12 37 -61 56 -75 16 -13 21
-12 37 1 23 21 22 47 -5 94 -26 46 -39 48 -67 13z"/>
<path d="M5650 899 c0 -24 23 -21 28 4 2 10 -3 17 -12 17 -10 0 -16 -9 -16
-21z"/>
<path d="M4851 671 c-9 -16 -8 -18 9 -14 11 3 20 12 20 19 0 20 -18 17 -29 -5z"/>
<path d="M8208 665 c-3 -3 -34 -9 -69 -13 -35 -4 -64 -11 -64 -17 0 -5 16 -18
35 -27 70 -34 214 10 163 50 -17 12 -55 16 -65 7z"/>
<path d="M4765 632 c-10 -11 -5 -30 11 -36 15 -6 43 17 44 35 0 8 -47 9 -55 1z"/>
<path d="M8300 621 c0 -10 9 -21 19 -24 12 -3 21 -15 23 -33 3 -31 42 -49 66
-31 20 16 14 33 -25 71 -41 40 -83 48 -83 17z"/>
<path d="M8471 524 c0 -11 3 -14 6 -6 3 7 2 16 -1 19 -3 4 -6 -2 -5 -13z"/>
<path d="M4872 420 c-18 -11 -44 -20 -57 -20 -16 0 -25 -6 -25 -15 0 -9 9 -15
25 -15 14 0 28 -7 31 -15 14 -35 59 -1 70 53 8 37 1 39 -44 12z"/>
<path d="M7320 400 c0 -5 5 -10 11 -10 5 0 7 5 4 10 -3 6 -8 10 -11 10 -2 0
-4 -4 -4 -10z"/>
<path d="M7293 323 c-35 -24 -29 -43 12 -43 29 0 37 5 45 26 6 14 10 27 10 30
0 10 -47 2 -67 -13z"/>
<path d="M3745 321 c-3 -5 -1 -12 5 -16 5 -3 10 1 10 9 0 18 -6 21 -15 7z"/>
<path d="M3890 305 c0 -10 10 -15 26 -15 22 0 25 2 14 15 -7 8 -19 15 -26 15
-8 0 -14 -7 -14 -15z"/>
<path d="M8150 260 c0 -5 9 -10 20 -10 11 0 20 5 20 10 0 6 -9 10 -20 10 -11
0 -20 -4 -20 -10z"/>
<path d="M6630 240 c0 -5 11 -10 25 -10 14 0 25 5 25 10 0 6 -11 10 -25 10
-14 0 -25 -4 -25 -10z"/>
<path d="M8448 233 c7 -3 16 -2 19 1 4 3 -2 6 -13 5 -11 0 -14 -3 -6 -6z"/>
<path d="M3935 160 c3 -5 12 -7 20 -3 21 7 19 13 -6 13 -11 0 -18 -4 -14 -10z"/>
<path d="M5510 155 c0 -11 7 -15 23 -13 12 2 22 8 22 13 0 6 -10 11 -22 13
-16 2 -23 -2 -23 -13z"/>
<path d="M6634 144 c3 -9 6 -18 6 -20 0 -2 11 -4 25 -4 27 0 32 9 13 28 -18
18 -51 15 -44 -4z"/>
<path d="M3605 130 c-3 -5 1 -10 9 -10 9 0 16 5 16 10 0 6 -4 10 -9 10 -6 0
-13 -4 -16 -10z"/>
<path d="M7860 120 c0 -5 9 -10 21 -10 11 0 17 5 14 10 -3 6 -13 10 -21 10 -8
0 -14 -4 -14 -10z"/>
<path d="M4065 110 c3 -5 8 -10 11 -10 2 0 4 5 4 10 0 6 -5 10 -11 10 -5 0 -7
-4 -4 -10z"/>
</g>
</svg>
